<svg xmlns="http://www.w3.org/2000/svg" xmlns:xlink="http://www.w3.org/1999/xlink" viewBox="0 0 540 288"><defs><style>.cls-1{isolation:isolate;}.cls-2{fill:#001840;}.cls-3,.cls-5{mix-blend-mode:screen;}.cls-3{fill:url(#radial-gradient);}.cls-10,.cls-100,.cls-101,.cls-102,.cls-103,.cls-104,.cls-105,.cls-106,.cls-107,.cls-108,.cls-109,.cls-11,.cls-110,.cls-111,.cls-12,.cls-13,.cls-14,.cls-15,.cls-16,.cls-17,.cls-18,.cls-19,.cls-20,.cls-21,.cls-22,.cls-23,.cls-24,.cls-25,.cls-26,.cls-27,.cls-28,.cls-29,.cls-30,.cls-31,.cls-32,.cls-33,.cls-34,.cls-35,.cls-36,.cls-37,.cls-38,.cls-39,.cls-4,.cls-40,.cls-41,.cls-42,.cls-43,.cls-44,.cls-45,.cls-46,.cls-47,.cls-48,.cls-49,.cls-50,.cls-51,.cls-52,.cls-53,.cls-54,.cls-55,.cls-56,.cls-57,.cls-58,.cls-59,.cls-6,.cls-60,.cls-61,.cls-62,.cls-63,.cls-64,.cls-65,.cls-66,.cls-67,.cls-68,.cls-69,.cls-7,.cls-70,.cls-71,.cls-72,.cls-73,.cls-74,.cls-75,.cls-76,.cls-77,.cls-78,.cls-79,.cls-8,.cls-80,.cls-81,.cls-82,.cls-83,.cls-84,.cls-85,.cls-86,.cls-87,.cls-88,.cls-89,.cls-9,.cls-90,.cls-91,.cls-92,.cls-93,.cls-94,.cls-95,.cls-96,.cls-97,.cls-98,.cls-99{mix-blend-mode:color-dodge;}.cls-4{fill:url(#radial-gradient-2);}.cls-5{fill:url(#radial-gradient-3);}.cls-6{fill:url(#radial-gradient-4);}.cls-10,.cls-100,.cls-101,.cls-102,.cls-103,.cls-104,.cls-105,.cls-106,.cls-107,.cls-108,.cls-109,.cls-11,.cls-110,.cls-111,.cls-12,.cls-13,.cls-14,.cls-15,.cls-16,.cls-17,.cls-18,.cls-19,.cls-20,.cls-21,.cls-22,.cls-23,.cls-24,.cls-25,.cls-26,.cls-27,.cls-28,.cls-29,.cls-30,.cls-31,.cls-32,.cls-33,.cls-34,.cls-35,.cls-36,.cls-37,.cls-38,.cls-39,.cls-40,.cls-41,.cls-42,.cls-43,.cls-44,.cls-45,.cls-46,.cls-47,.cls-48,.cls-49,.cls-50,.cls-51,.cls-52,.cls-53,.cls-54,.cls-55,.cls-56,.cls-57,.cls-58,.cls-59,.cls-60,.cls-61,.cls-62,.cls-63,.cls-64,.cls-65,.cls-66,.cls-67,.cls-68,.cls-69,.cls-7,.cls-70,.cls-71,.cls-72,.cls-73,.cls-74,.cls-75,.cls-76,.cls-77,.cls-78,.cls-79,.cls-8,.cls-80,.cls-81,.cls-82,.cls-83,.cls-84,.cls-85,.cls-86,.cls-87,.cls-88,.cls-89,.cls-9,.cls-90,.cls-91,.cls-92,.cls-93,.cls-94,.cls-95,.cls-96,.cls-97,.cls-98,.cls-99{opacity:0.7;}.cls-7{fill:url(#radial-gradient-5);}.cls-8{fill:url(#radial-gradient-6);}.cls-9{fill:url(#radial-gradient-7);}.cls-10{fill:url(#radial-gradient-8);}.cls-11{fill:url(#radial-gradient-9);}.cls-12{fill:url(#radial-gradient-10);}.cls-13{fill:url(#radial-gradient-11);}.cls-14{fill:url(#radial-gradient-12);}.cls-15{fill:url(#radial-gradient-13);}.cls-16{fill:url(#radial-gradient-14);}.cls-17{fill:url(#radial-gradient-15);}.cls-18{fill:url(#radial-gradient-16);}.cls-19{fill:url(#radial-gradient-17);}.cls-20{fill:url(#radial-gradient-18);}.cls-21{fill:url(#radial-gradient-19);}.cls-22{fill:url(#radial-gradient-20);}.cls-23{fill:url(#radial-gradient-21);}.cls-24{fill:url(#radial-gradient-22);}.cls-25{fill:url(#radial-gradient-23);}.cls-26{fill:url(#radial-gradient-24);}.cls-27{fill:url(#radial-gradient-25);}.cls-28{fill:url(#radial-gradient-26);}.cls-29{fill:url(#radial-gradient-27);}.cls-30{fill:url(#radial-gradient-28);}.cls-31{fill:url(#radial-gradient-29);}.cls-32{fill:url(#radial-gradient-30);}.cls-33{fill:url(#radial-gradient-31);}.cls-34{fill:url(#radial-gradient-32);}.cls-35{fill:url(#radial-gradient-33);}.cls-36{fill:url(#radial-gradient-34);}.cls-37{fill:url(#radial-gradient-35);}.cls-38{fill:url(#radial-gradient-36);}.cls-39{fill:url(#radial-gradient-37);}.cls-40{fill:url(#radial-gradient-38);}.cls-41{fill:url(#radial-gradient-39);}.cls-42{fill:url(#radial-gradient-40);}.cls-43{fill:url(#radial-gradient-41);}.cls-44{fill:url(#radial-gradient-42);}.cls-45{fill:url(#radial-gradient-43);}.cls-46{fill:url(#radial-gradient-44);}.cls-47{fill:url(#radial-gradient-45);}.cls-48{fill:url(#radial-gradient-46);}.cls-49{fill:url(#radial-gradient-47);}.cls-50{fill:url(#radial-gradient-48);}.cls-51{fill:url(#radial-gradient-49);}.cls-52{fill:url(#radial-gradient-50);}.cls-53{fill:url(#radial-gradient-51);}.cls-54{fill:url(#radial-gradient-52);}.cls-55{fill:url(#radial-gradient-53);}.cls-56{fill:url(#radial-gradient-54);}.cls-57{fill:url(#radial-gradient-55);}.cls-58{fill:url(#radial-gradient-56);}.cls-59{fill:url(#radial-gradient-57);}.cls-60{fill:url(#radial-gradient-58);}.cls-61{fill:url(#radial-gradient-59);}.cls-62{fill:url(#radial-gradient-60);}.cls-63{fill:url(#radial-gradient-61);}.cls-64{fill:url(#radial-gradient-62);}.cls-65{fill:url(#radial-gradient-63);}.cls-66{fill:url(#radial-gradient-64);}.cls-67{fill:url(#radial-gradient-65);}.cls-68{fill:url(#radial-gradient-66);}.cls-69{fill:url(#radial-gradient-67);}.cls-70{fill:url(#radial-gradient-68);}.cls-71{fill:url(#radial-gradient-69);}.cls-72{fill:url(#radial-gradient-70);}.cls-73{fill:url(#radial-gradient-71);}.cls-74{fill:url(#radial-gradient-72);}.cls-75{fill:url(#radial-gradient-73);}.cls-76{fill:url(#radial-gradient-74);}.cls-77{fill:url(#radial-gradient-75);}.cls-78{fill:url(#radial-gradient-76);}.cls-79{fill:url(#radial-gradient-77);}.cls-80{fill:url(#radial-gradient-78);}.cls-81{fill:url(#radial-gradient-79);}.cls-82{fill:url(#radial-gradient-80);}.cls-83{fill:url(#radial-gradient-81);}.cls-84{fill:url(#radial-gradient-82);}.cls-85{fill:url(#radial-gradient-83);}.cls-86{fill:url(#radial-gradient-84);}.cls-87{fill:url(#radial-gradient-85);}.cls-88{fill:url(#radial-gradient-86);}.cls-89{fill:url(#radial-gradient-87);}.cls-90{fill:url(#radial-gradient-88);}.cls-91{fill:url(#radial-gradient-89);}.cls-92{fill:url(#radial-gradient-90);}.cls-93{fill:url(#radial-gradient-91);}.cls-94{fill:url(#radial-gradient-92);}.cls-95{fill:url(#radial-gradient-93);}.cls-96{fill:url(#radial-gradient-94);}.cls-97{fill:url(#radial-gradient-95);}.cls-98{fill:url(#radial-gradient-96);}.cls-99{fill:url(#radial-gradient-97);}.cls-100{fill:url(#radial-gradient-98);}.cls-101{fill:url(#radial-gradient-99);}.cls-102{fill:url(#radial-gradient-100);}.cls-103{fill:url(#radial-gradient-101);}.cls-104{fill:url(#radial-gradient-102);}.cls-105{fill:url(#radial-gradient-103);}.cls-106{fill:url(#radial-gradient-104);}.cls-107{fill:url(#radial-gradient-105);}.cls-108{fill:url(#radial-gradient-106);}.cls-109{fill:url(#radial-gradient-107);}.cls-110{fill:url(#radial-gradient-108);}.cls-111{fill:url(#radial-gradient-109);}</style><radialGradient id="radial-gradient" cx="-741.07" cy="651.97" r="109.4" gradientTransform="matrix(3.03, 0.08, -0.06, 2.43, 2668.9, -1170.9)" gradientUnits="userSpaceOnUse"><stop offset="0" stop-color="#09414f"/><stop offset="0.02" stop-color="#083d4a"/><stop offset="0.16" stop-color="#05272f"/><stop offset="0.31" stop-color="#03161a"/><stop offset="0.48" stop-color="#01090b"/><stop offset="0.69" stop-color="#000203"/><stop offset="1"/></radialGradient><radialGradient id="radial-gradient-2" cx="-741.07" cy="651.97" r="55.88" xlink:href="#radial-gradient"/><radialGradient id="radial-gradient-3" cx="-700.85" cy="481.5" r="109.4" xlink:href="#radial-gradient"/><radialGradient id="radial-gradient-4" cx="-700.85" cy="481.5" r="55.88" xlink:href="#radial-gradient"/><radialGradient id="radial-gradient-5" cx="-2218.8" cy="451.54" r="87.93" gradientTransform="translate(-135.09 -2961.34) rotate(-90) scale(1.48)" gradientUnits="userSpaceOnUse"><stop offset="0" stop-color="#292929"/><stop offset="0.01" stop-color="#2b2b2b"/><stop offset="0.14" stop-color="#494949"/><stop offset="0.28" stop-color="#5f5f5f"/><stop offset="0.41" stop-color="#6c6c6c"/><stop offset="0.53" stop-color="#707070"/><stop offset="0.73" stop-color="#fff"/></radialGradient><radialGradient id="radial-gradient-6" cx="-2098.97" cy="713.73" r="64.47" gradientTransform="translate(-452.03 -2763.35) rotate(-90) scale(1.3)" xlink:href="#radial-gradient-5"/><radialGradient id="radial-gradient-7" cx="-2226.11" cy="417.61" r="70.93" gradientTransform="translate(-224.94 -2892.39) rotate(-90) scale(1.42)" xlink:href="#radial-gradient-5"/><radialGradient id="radial-gradient-8" cx="-2189.17" cy="631.51" r="59.4" gradientTransform="translate(-488.66 -2737.1) rotate(-90) scale(1.26)" xlink:href="#radial-gradient-5"/><radialGradient id="radial-gradient-9" cx="-2238.7" cy="538.57" r="73.03" gradientTransform="translate(-375.89 -2802.22) rotate(-90) scale(1.33)" xlink:href="#radial-gradient-5"/><radialGradient id="radial-gradient-10" cx="-2385.77" cy="566.09" r="91.72" gradientTransform="translate(-388.23 -2805.21) rotate(-90) scale(1.31)" xlink:href="#radial-gradient-5"/><radialGradient id="radial-gradient-11" cx="-2459.34" cy="845.72" r="98.89" gradientTransform="translate(-577.1 -2698.7) rotate(-90) scale(1.2)" xlink:href="#radial-gradient-5"/><radialGradient id="radial-gradient-12" cx="-2620.51" cy="1337.8" r="98.22" gradientTransform="translate(-834.65 -2560.63) rotate(-90) scale(1.05)" xlink:href="#radial-gradient-5"/><radialGradient id="radial-gradient-13" cx="-2928.79" cy="1685.75" r="78.11" gradientTransform="translate(-1125.91 -2409.18) rotate(-90) scale(0.87)" xlink:href="#radial-gradient-5"/><radialGradient id="radial-gradient-14" cx="-3114.21" cy="1950.39" r="66.21" gradientTransform="translate(-1194.73 -2370.17) rotate(-90) scale(0.83)" xlink:href="#radial-gradient-5"/><radialGradient id="radial-gradient-15" cx="-2541.08" cy="1228.29" r="81.84" gradientTransform="translate(-912.21 -2520.95) rotate(-90)" xlink:href="#radial-gradient-5"/><radialGradient id="radial-gradient-16" cx="-2581.02" cy="1536.44" r="83.5" gradientTransform="translate(-985.05 -2484.72) rotate(-90) scale(0.96)" xlink:href="#radial-gradient-5"/><radialGradient id="radial-gradient-17" cx="-3141.26" cy="2306.84" r="96.07" gradientTransform="translate(-1326.22 -2311.56) rotate(-90) scale(0.75)" xlink:href="#radial-gradient-5"/><radialGradient id="radial-gradient-18" cx="-3362.08" cy="1961.33" r="83.42" gradientTransform="translate(-1296.54 -2313.31) rotate(-90) scale(0.77)" xlink:href="#radial-gradient-5"/><radialGradient id="radial-gradient-19" cx="-5559.93" cy="5148.65" r="70.09" gradientTransform="translate(-1946.99 -1987.46) rotate(-90) scale(0.41)" xlink:href="#radial-gradient-5"/><radialGradient id="radial-gradient-20" cx="-8041.22" cy="9603.4" r="72.03" gradientTransform="translate(-2208.49 -1862.03) rotate(-90) scale(0.27)" xlink:href="#radial-gradient-5"/><radialGradient id="radial-gradient-21" cx="-3048.1" cy="2211.24" r="83.89" gradientTransform="translate(-1325.04 -2316.76) rotate(-90) scale(0.75)" xlink:href="#radial-gradient-5"/><radialGradient id="radial-gradient-22" cx="-3442.6" cy="2925.48" r="64.56" gradientTransform="translate(-1452.84 -2245.43) rotate(-90) scale(0.68)" xlink:href="#radial-gradient-5"/><radialGradient id="radial-gradient-23" cx="-3511.92" cy="2388.28" r="89.25" gradientTransform="translate(-1395.12 -2264.22) rotate(-90) scale(0.71)" xlink:href="#radial-gradient-5"/><radialGradient id="radial-gradient-24" cx="-5406.17" cy="5083.4" r="82.49" gradientTransform="translate(-1895.71 -2000.08) rotate(-90) scale(0.43)" xlink:href="#radial-gradient-5"/><radialGradient id="radial-gradient-25" cx="-6724.97" cy="6849.24" r="72.56" gradientTransform="translate(-2071.36 -1914.11) rotate(-90) scale(0.33)" xlink:href="#radial-gradient-5"/><radialGradient id="radial-gradient-26" cx="-9316.33" cy="11194.08" r="57.06" gradientTransform="translate(-2264.03 -1826.23) rotate(-90) scale(0.23)" xlink:href="#radial-gradient-5"/><radialGradient id="radial-gradient-27" cx="-3433.57" cy="2890.5" r="71.87" gradientTransform="translate(-1467.46 -2240.77) rotate(-90) scale(0.67)" xlink:href="#radial-gradient-5"/><radialGradient id="radial-gradient-28" cx="-4127.93" cy="3369.32" r="74.59" gradientTransform="translate(-1636.46 -2140.39) rotate(-90) scale(0.57)" xlink:href="#radial-gradient-5"/><radialGradient id="radial-gradient-29" cx="-4349.43" cy="3863.93" r="62.51" gradientTransform="translate(-1706.31 -2106.67) rotate(-90) scale(0.53)" xlink:href="#radial-gradient-5"/><radialGradient id="radial-gradient-30" cx="-6430.08" cy="6943.32" r="79.17" gradientTransform="translate(-2038.81 -1933.71) rotate(-90) scale(0.34)" xlink:href="#radial-gradient-5"/><radialGradient id="radial-gradient-31" cx="-7508.98" cy="8434.85" r="78.07" gradientTransform="translate(-2136.21 -1883.53) rotate(-90) scale(0.28)" xlink:href="#radial-gradient-5"/><radialGradient id="radial-gradient-32" cx="-8983.97" cy="10229.02" r="55.94" gradientTransform="translate(-2242.99 -1839.32) rotate(-90) scale(0.23)" xlink:href="#radial-gradient-5"/><radialGradient id="radial-gradient-33" cx="-12717.01" cy="17288.91" r="71.05" gradientTransform="translate(-2396.34 -1784.87) rotate(-90) scale(0.16)" xlink:href="#radial-gradient-5"/><radialGradient id="radial-gradient-34" cx="-13427.73" cy="17391.03" r="91.98" gradientTransform="translate(-2410.98 -1791.67) rotate(-90) scale(0.14)" xlink:href="#radial-gradient-5"/><radialGradient id="radial-gradient-35" cx="-3731.07" cy="3239.71" r="65.35" gradientTransform="translate(-1587.21 -2182.33) rotate(-90) scale(0.6)" xlink:href="#radial-gradient-5"/><radialGradient id="radial-gradient-36" cx="-5207.37" cy="5305.91" r="76.93" gradientTransform="translate(-1908.92 -2016) rotate(-90) scale(0.4)" xlink:href="#radial-gradient-5"/><radialGradient id="radial-gradient-37" cx="-6225.51" cy="7609.69" r="57.21" gradientTransform="translate(-2031 -1949.29) rotate(-90) scale(0.34)" xlink:href="#radial-gradient-5"/><radialGradient id="radial-gradient-38" cx="-9108.68" cy="12258.24" r="57.92" gradientTransform="translate(-2234.84 -1846.73) rotate(-90) scale(0.22)" xlink:href="#radial-gradient-5"/><radialGradient id="radial-gradient-39" cx="-10945.06" cy="14495.47" r="97.96" gradientTransform="translate(-2321.66 -1815.48) rotate(-90) scale(0.18)" xlink:href="#radial-gradient-5"/><radialGradient id="radial-gradient-40" cx="-2672.32" cy="1259.25" r="63.49" gradientTransform="translate(-823.68 -2575.3) rotate(-90) scale(1.06)" xlink:href="#radial-gradient-5"/><radialGradient id="radial-gradient-41" cx="-2644.45" cy="1352.92" r="60.23" gradientTransform="translate(-914.93 -2522.8) rotate(-90) scale(1.01)" xlink:href="#radial-gradient-5"/><radialGradient id="radial-gradient-42" cx="-2634.09" cy="1194.53" r="77.09" gradientTransform="translate(-833.86 -2565.62) rotate(-90) scale(1.05)" xlink:href="#radial-gradient-5"/><radialGradient id="radial-gradient-43" cx="-2714.27" cy="1046.08" r="88.94" gradientTransform="translate(-832.88 -2566.75) rotate(-90) scale(1.05)" xlink:href="#radial-gradient-5"/><radialGradient id="radial-gradient-44" cx="-2701.96" cy="1699.13" r="93.08" gradientTransform="translate(-1079.27 -2438.31) rotate(-90) scale(0.9)" xlink:href="#radial-gradient-5"/><radialGradient id="radial-gradient-45" cx="-2767.53" cy="1361.74" r="73.5" gradientTransform="translate(-941.46 -2506.17) rotate(-90) scale(0.99)" xlink:href="#radial-gradient-5"/><radialGradient id="radial-gradient-46" cx="-3042.6" cy="1476.82" r="77.56" gradientTransform="translate(-1092.71 -2422.17) rotate(-90) scale(0.89)" xlink:href="#radial-gradient-5"/><radialGradient id="radial-gradient-47" cx="-3290.79" cy="2345.88" r="62.55" gradientTransform="translate(-1280.31 -2322.58) rotate(-90) scale(0.78)" xlink:href="#radial-gradient-5"/><radialGradient id="radial-gradient-48" cx="-3731.89" cy="3045.68" r="64.88" gradientTransform="translate(-1492.71 -2210.22) rotate(-90) scale(0.65)" xlink:href="#radial-gradient-5"/><radialGradient id="radial-gradient-49" cx="-3713.52" cy="2687.98" r="62.89" gradientTransform="translate(-1480.12 -2215.94) rotate(-90) scale(0.66)" xlink:href="#radial-gradient-5"/><radialGradient id="radial-gradient-50" cx="-3957.05" cy="3300.83" r="72.28" gradientTransform="translate(-1543.4 -2177.13) rotate(-90) scale(0.62)" xlink:href="#radial-gradient-5"/><radialGradient id="radial-gradient-51" cx="-2921.28" cy="1961.78" r="56.33" gradientTransform="translate(-1194.51 -2377.46) rotate(-90) scale(0.83)" xlink:href="#radial-gradient-5"/><radialGradient id="radial-gradient-52" cx="-2945.45" cy="1565.97" r="62.89" gradientTransform="translate(-1122.92 -2410.26) rotate(-90) scale(0.88)" xlink:href="#radial-gradient-5"/><radialGradient id="radial-gradient-53" cx="-3244.93" cy="2365.88" r="88.29" gradientTransform="translate(-1334.18 -2301.57) rotate(-90) scale(0.75)" xlink:href="#radial-gradient-5"/><radialGradient id="radial-gradient-54" cx="-3318.36" cy="2482.17" r="59.69" gradientTransform="translate(-1387.65 -2275.86) rotate(-90) scale(0.71)" xlink:href="#radial-gradient-5"/><radialGradient id="radial-gradient-55" cx="-3603.69" cy="3085.48" r="60.27" gradientTransform="translate(-1504.09 -2214.95) rotate(-90) scale(0.64)" xlink:href="#radial-gradient-5"/><radialGradient id="radial-gradient-56" cx="-4008.99" cy="3475.29" r="74.82" gradientTransform="translate(-1639.61 -2140.37) rotate(-90) scale(0.56)" xlink:href="#radial-gradient-5"/><radialGradient id="radial-gradient-57" cx="-3977.72" cy="3525.58" r="95.69" gradientTransform="translate(-1580.43 -2164.14) rotate(-90) scale(0.6)" xlink:href="#radial-gradient-5"/><radialGradient id="radial-gradient-58" cx="-17937.81" cy="23656.91" r="82.49" gradientTransform="translate(-2481.89 -1723.28) rotate(-90) scale(0.11)" xlink:href="#radial-gradient-5"/><radialGradient id="radial-gradient-59" cx="-22620.73" cy="33070.28" r="62.2" gradientTransform="translate(-2525.74 -1710.49) rotate(-90) scale(0.09)" xlink:href="#radial-gradient-5"/><radialGradient id="radial-gradient-60" cx="-48272.36" cy="73988.88" r="89.44" gradientTransform="translate(-2618.89 -1686.76) rotate(-90) scale(0.04)" xlink:href="#radial-gradient-5"/><radialGradient id="radial-gradient-61" cx="-60765.97" cy="94684.49" r="76.26" gradientTransform="translate(-2622.74 -1710.94) rotate(-90) scale(0.03)" xlink:href="#radial-gradient-5"/><radialGradient id="radial-gradient-62" cx="-3007.8" cy="2001.03" r="82.51" gradientTransform="translate(-1279.43 -2336.96) rotate(-90) scale(0.78)" xlink:href="#radial-gradient-5"/><radialGradient id="radial-gradient-63" cx="-3229.44" cy="2734.42" r="88.28" gradientTransform="translate(-1413.93 -2271.59) rotate(-90) scale(0.7)" xlink:href="#radial-gradient-5"/><radialGradient id="radial-gradient-64" cx="-3638.46" cy="3116.72" r="65.83" gradientTransform="translate(-1577.9 -2189.75) rotate(-90) scale(0.6)" xlink:href="#radial-gradient-5"/><radialGradient id="radial-gradient-65" cx="-3658.1" cy="3207.52" r="82.18" gradientTransform="translate(-1565.88 -2191.74) rotate(-90) scale(0.6)" xlink:href="#radial-gradient-5"/><radialGradient id="radial-gradient-66" cx="-3983.5" cy="3560.36" r="52.41" gradientTransform="translate(-1638.9 -2147.48) rotate(-90) scale(0.56)" xlink:href="#radial-gradient-5"/><radialGradient id="radial-gradient-67" cx="-4480.2" cy="3816.83" r="67.62" gradientTransform="translate(-1733.5 -2088.45) rotate(-90) scale(0.5)" xlink:href="#radial-gradient-5"/><radialGradient id="radial-gradient-68" cx="-20095.46" cy="28178.29" r="59.71" gradientTransform="translate(-2475.82 -1715.17) rotate(-90) scale(0.1)" xlink:href="#radial-gradient-5"/><radialGradient id="radial-gradient-69" cx="-28879.3" cy="38816.37" r="63.36" gradientTransform="translate(-2532.44 -1696.96) rotate(-90) scale(0.07)" xlink:href="#radial-gradient-5"/><radialGradient id="radial-gradient-70" cx="-33114.46" cy="49992.71" r="83.86" gradientTransform="translate(-2551.64 -1704.59) rotate(-90) scale(0.06)" xlink:href="#radial-gradient-5"/><radialGradient id="radial-gradient-71" cx="-4093.33" cy="3624.53" r="79.89" gradientTransform="translate(-1685.64 -2128.23) rotate(-90) scale(0.53)" xlink:href="#radial-gradient-5"/><radialGradient id="radial-gradient-72" cx="-5367.49" cy="5085.66" r="88.13" gradientTransform="translate(-1867.92 -2003.13) rotate(-90) scale(0.42)" xlink:href="#radial-gradient-5"/><radialGradient id="radial-gradient-73" cx="-5688.12" cy="5885.56" r="99.06" gradientTransform="translate(-1919.94 -1978.16) rotate(-90) scale(0.39)" xlink:href="#radial-gradient-5"/><radialGradient id="radial-gradient-74" cx="-6446.37" cy="7116.15" r="88.59" gradientTransform="translate(-2008.58 -1930.65) rotate(-90) scale(0.34)" xlink:href="#radial-gradient-5"/><radialGradient id="radial-gradient-75" cx="-27409.38" cy="41705.79" r="60.6" gradientTransform="translate(-2501.76 -1731.67) rotate(-90) scale(0.07)" xlink:href="#radial-gradient-5"/><radialGradient id="radial-gradient-76" cx="-4910.21" cy="5388.04" r="84.04" gradientTransform="translate(-1832.13 -2041.63) rotate(-90) scale(0.44)" xlink:href="#radial-gradient-5"/><radialGradient id="radial-gradient-77" cx="-6266.75" cy="7266.57" r="78.92" gradientTransform="translate(-2011.58 -1946.48) rotate(-90) scale(0.33)" xlink:href="#radial-gradient-5"/><radialGradient id="radial-gradient-78" cx="-6945.55" cy="8071.64" r="74.54" gradientTransform="translate(-2069.13 -1912.28) rotate(-90) scale(0.3)" xlink:href="#radial-gradient-5"/><radialGradient id="radial-gradient-79" cx="-12341.52" cy="15498.56" r="64.97" gradientTransform="translate(-2306.77 -1778.98) rotate(-90) scale(0.16)" xlink:href="#radial-gradient-5"/><radialGradient id="radial-gradient-80" cx="-14999.51" cy="19929.88" r="67.68" gradientTransform="translate(-2372.08 -1752.09) rotate(-90) scale(0.13)" xlink:href="#radial-gradient-5"/><radialGradient id="radial-gradient-81" cx="-20540.67" cy="29363.42" r="67.67" gradientTransform="translate(-2450.39 -1772.15) rotate(-90) scale(0.09)" xlink:href="#radial-gradient-5"/><radialGradient id="radial-gradient-82" cx="-5216.5" cy="6184.06" r="83.45" gradientTransform="translate(-1912.34 -2015.83) rotate(-90) scale(0.39)" xlink:href="#radial-gradient-5"/><radialGradient id="radial-gradient-83" cx="-9954.09" cy="13858.14" r="65.4" gradientTransform="translate(-2248.29 -1840.62) rotate(-90) scale(0.19)" xlink:href="#radial-gradient-5"/><radialGradient id="radial-gradient-84" cx="-5117.34" cy="5376.55" r="62.1" gradientTransform="translate(-1852.51 -2023.26) rotate(-90) scale(0.42)" xlink:href="#radial-gradient-5"/><radialGradient id="radial-gradient-85" cx="-4290.21" cy="4429.87" r="106.31" gradientTransform="translate(-1717.1 -2104.73) rotate(-90) scale(0.51)" xlink:href="#radial-gradient-5"/><radialGradient id="radial-gradient-86" cx="-3427.09" cy="2715.85" r="78.44" gradientTransform="translate(-1455.85 -2242.92) rotate(-90) scale(0.67)" xlink:href="#radial-gradient-5"/><radialGradient id="radial-gradient-87" cx="-4630.52" cy="4477.63" r="87.91" gradientTransform="translate(-1750.24 -2069.6) rotate(-90) scale(0.48)" xlink:href="#radial-gradient-5"/><radialGradient id="radial-gradient-88" cx="-5699.53" cy="6739.35" r="81.86" gradientTransform="translate(-1957.27 -1981.13) rotate(-90) scale(0.37)" xlink:href="#radial-gradient-5"/><radialGradient id="radial-gradient-89" cx="-4849.41" cy="4540.98" r="90.99" gradientTransform="translate(-1792.56 -2049.44) rotate(-90) scale(0.46)" xlink:href="#radial-gradient-5"/><radialGradient id="radial-gradient-90" cx="-6253.06" cy="6474.87" r="65.05" gradientTransform="translate(-1956.94 -1940.56) rotate(-90) scale(0.36)" xlink:href="#radial-gradient-5"/><radialGradient id="radial-gradient-91" cx="-7946.81" cy="9749.55" r="87.62" gradientTransform="translate(-2156.35 -1893.57) rotate(-90) scale(0.24)" xlink:href="#radial-gradient-5"/><radialGradient id="radial-gradient-92" cx="-5024.67" cy="5555.21" r="64.26" gradientTransform="translate(-1876.84 -2030.69) rotate(-90) scale(0.4)" xlink:href="#radial-gradient-5"/><radialGradient id="radial-gradient-93" cx="-4366.19" cy="4782.1" r="61.97" gradientTransform="translate(-1767.05 -2092.38) rotate(-90) scale(0.48)" xlink:href="#radial-gradient-5"/><radialGradient id="radial-gradient-94" cx="-5280.54" cy="5946.48" r="75.02" gradientTransform="translate(-1941.74 -2012) rotate(-90) scale(0.38)" xlink:href="#radial-gradient-5"/><radialGradient id="radial-gradient-95" cx="-8268.18" cy="10202.69" r="76.38" gradientTransform="translate(-2124.52 -1858.37) rotate(-90) scale(0.25)" xlink:href="#radial-gradient-5"/><radialGradient id="radial-gradient-96" cx="-6063.54" cy="6624.59" r="66.45" gradientTransform="translate(-1987.41 -1959.35) rotate(-90) scale(0.34)" xlink:href="#radial-gradient-5"/><radialGradient id="radial-gradient-97" cx="-8583.64" cy="10275.48" r="96.5" gradientTransform="translate(-2184.72 -1861.51) rotate(-90) scale(0.23)" xlink:href="#radial-gradient-5"/><radialGradient id="radial-gradient-98" cx="-7600.82" cy="8170.91" r="67.06" gradientTransform="translate(-2081.38 -1876.51) rotate(-90) scale(0.28)" xlink:href="#radial-gradient-5"/><radialGradient id="radial-gradient-99" cx="-9079.68" cy="11596.33" r="73.29" gradientTransform="translate(-2203.19 -1849.21) rotate(-90) scale(0.22)" xlink:href="#radial-gradient-5"/><radialGradient id="radial-gradient-100" cx="-22619.65" cy="34494.59" r="70.4" gradientTransform="translate(-2450.92 -1715.96) rotate(-90) scale(0.09)" xlink:href="#radial-gradient-5"/><radialGradient id="radial-gradient-101" cx="-46427.5" cy="77942.74" r="104.24" gradientTransform="translate(-2547.97 -1730.79) rotate(-90) scale(0.04)" xlink:href="#radial-gradient-5"/><radialGradient id="radial-gradient-102" cx="-67151.74" cy="112940.54" r="79.88" gradientTransform="translate(-2591.66 -1680.38) rotate(-90) scale(0.03)" xlink:href="#radial-gradient-5"/><radialGradient id="radial-gradient-103" cx="-6345.97" cy="6872.51" r="84.14" gradientTransform="translate(-1973.21 -1936.2) rotate(-90) scale(0.35)" xlink:href="#radial-gradient-5"/><radialGradient id="radial-gradient-104" cx="-13218.34" cy="18570.21" r="83.22" gradientTransform="translate(-2334.17 -1811.62) rotate(-90) scale(0.14)" xlink:href="#radial-gradient-5"/><radialGradient id="radial-gradient-105" cx="-11247.84" cy="15402.45" r="66.09" gradientTransform="translate(-2282.92 -1812.75) rotate(-90) scale(0.17)" xlink:href="#radial-gradient-5"/><radialGradient id="radial-gradient-106" cx="-8568.8" cy="11806.53" r="95.78" gradientTransform="translate(-2186.21 -1867.69) rotate(-90) scale(0.23)" xlink:href="#radial-gradient-5"/><radialGradient id="radial-gradient-107" cx="-31008.09" cy="47516.55" r="87.04" gradientTransform="translate(-2461.88 -1718.27) rotate(-90) scale(0.06)" xlink:href="#radial-gradient-5"/><radialGradient id="radial-gradient-108" cx="-20104.19" cy="32869.53" r="87.44" gradientTransform="translate(-2421.73 -1766.6) rotate(-90) scale(0.09)" xlink:href="#radial-gradient-5"/><radialGradient id="radial-gradient-109" cx="-23684.52" cy="38512.27" r="96.18" gradientTransform="translate(-2441.88 -1756.02) rotate(-90) scale(0.08)" xlink:href="#radial-gradient-5"/></defs><title>fundo</title><g class="cls-1"><g id="Layer_1" data-name="Layer 1"><rect class="cls-2" width="540" height="288"/><path class="cls-3" d="M540,125.67c-45.55-20.57-97.69-32.9-153.32-34.32-157-4-290.77,80.06-328.28,196.65H540Z"/><path class="cls-4" d="M524.61,288c-29.16-38.52-81.23-64.9-141.26-66.44-63.9-1.63-120.24,25.31-150.21,66.44Z"/><path class="cls-5" d="M540,0H188.22c32,117.8,161,208.06,317.5,212.07q17.34.44,34.28-.54Z"/><path class="cls-6" d="M540,0H357.72c26,46.75,83.59,80.13,151.33,81.85A211.84,211.84,0,0,0,540,80.38Z"/><polygon class="cls-7" points="540 247.9 534.33 244.61 462.39 286.38 462.39 288 540 288 540 247.9"/><polygon class="cls-8" points="441.76 0 476.13 19.95 510.5 0 441.76 0"/><polygon class="cls-9" points="421.96 288 421.96 228.2 366.51 196.01 311.06 228.2 311.06 288 421.96 288"/><polygon class="cls-10" points="273.7 0 267.48 3.61 267.48 51.68 308.88 75.72 350.29 51.68 350.29 3.61 344.06 0 273.7 0"/><polygon class="cls-11" points="284.72 134.87 284.72 196.92 338.16 227.94 391.6 196.92 391.6 134.87 338.16 103.85 284.72 134.87"/><polygon class="cls-12" points="419.86 288 355.12 250.42 290.38 288 419.86 288"/><polygon class="cls-13" points="504.63 288 504.63 218.18 439.06 180.12 373.48 218.18 373.48 288 504.63 288"/><polygon class="cls-14" points="540 137.46 511.27 154.14 511.27 220.13 540 236.81 540 137.46"/><polygon class="cls-15" points="309.64 128.51 309.64 172.25 347.32 194.12 385 172.25 385 128.51 347.32 106.64 309.64 128.51"/><polygon class="cls-16" points="398.75 205.07 398.75 240.39 429.18 258.05 459.6 240.39 459.6 205.07 429.18 187.41 398.75 205.07"/><polygon class="cls-17" points="279.5 0 275 2.61 275 55.24 320.33 81.55 365.66 55.24 365.66 2.61 361.16 0 279.5 0"/><polygon class="cls-18" points="444.69 0 444.69 16.99 488.9 42.65 533.11 16.99 533.11 0 444.69 0"/><polygon class="cls-19" points="370.71 30.38 370.71 76.72 410.64 99.9 450.56 76.72 450.56 30.38 410.64 7.2 370.71 30.38"/><polygon class="cls-20" points="254.17 288 254.17 263.28 218.61 242.63 183.04 263.28 183.04 288 254.17 288"/><polygon class="cls-21" points="180.76 288 173.23 283.63 165.69 288 180.76 288"/><polygon class="cls-22" points="346.72 288 356.02 282.6 356.02 270.32 345.45 264.19 334.88 270.32 334.88 282.6 344.19 288 346.72 288"/><polygon class="cls-23" points="307.55 0 339.91 18.79 372.27 0 307.55 0"/><polygon class="cls-24" points="540 64.23 527.54 57.01 503.42 71.01 503.42 99.01 527.54 113.01 540 105.78 540 64.23"/><polygon class="cls-25" points="275.71 224.02 275.71 264.87 310.9 285.3 346.09 264.87 346.09 224.02 310.9 203.6 275.71 224.02"/><polygon class="cls-26" points="280.53 288 272.68 283.44 264.83 288 280.53 288"/><polygon class="cls-27" points="191.84 288 191.84 287.48 178.69 279.85 165.53 287.48 165.53 288 191.84 288"/><polygon class="cls-28" points="256.37 273.18 256.37 281.43 263.48 285.56 270.59 281.43 270.59 273.18 263.48 269.05 256.37 273.18"/><polygon class="cls-29" points="436.28 36.74 436.28 67.49 462.76 82.87 489.25 67.49 489.25 36.74 462.76 21.36 436.28 36.74"/><polygon class="cls-30" points="261.25 199.73 261.25 226.98 284.72 240.61 308.19 226.98 308.19 199.73 284.72 186.1 261.25 199.73"/><polygon class="cls-31" points="317.03 180.84 317.03 202 335.26 212.59 353.48 202 353.48 180.84 335.26 170.26 317.03 180.84"/><polygon class="cls-32" points="273.11 212.37 273.11 229.37 287.75 237.87 302.39 229.37 302.39 212.37 287.75 203.87 273.11 212.37"/><polygon class="cls-33" points="247.02 241.89 247.02 256.09 259.26 263.2 271.5 256.09 271.5 241.89 259.26 234.78 247.02 241.89"/><polygon class="cls-34" points="116.41 235.02 116.41 243.31 123.55 247.46 130.69 243.31 130.69 235.02 123.55 230.87 116.41 235.02"/><polygon class="cls-35" points="277.53 182.86 277.53 189.92 283.61 193.45 289.69 189.92 289.69 182.86 283.61 179.34 277.53 182.86"/><polygon class="cls-36" points="44.27 105.41 44.27 113.76 51.45 117.93 58.64 113.76 58.64 105.41 51.45 101.24 44.27 105.41"/><polygon class="cls-37" points="322.34 29.12 322.34 54.08 343.84 66.56 365.34 54.08 365.34 29.12 343.84 16.64 322.34 29.12"/><polygon class="cls-38" points="220.09 80.36 220.09 100.3 237.26 110.27 254.44 100.3 254.44 80.36 237.26 70.39 220.09 80.36"/><polygon class="cls-39" points="508.06 130.43 508.06 142.72 518.63 148.86 529.21 142.72 529.21 130.43 518.63 124.29 508.06 130.43"/><polygon class="cls-40" points="459.78 156.7 459.78 164.88 466.83 168.97 473.87 164.88 473.87 156.7 466.83 152.61 459.78 156.7"/><polygon class="cls-41" points="261.55 136.7 261.55 147.93 271.22 153.54 280.89 147.93 280.89 136.7 271.22 131.09 261.55 136.7"/><polygon class="cls-42" points="540 237.99 515.76 223.92 478.5 245.56 478.5 288 540 288 540 237.99"/><polygon class="cls-43" points="412.01 116.79 412.01 155.59 445.44 174.99 478.86 155.59 478.86 116.79 445.44 97.39 412.01 116.79"/><polygon class="cls-44" points="380.18 184.31 380.18 236.36 425.01 262.39 469.85 236.36 469.85 184.31 425.01 158.28 380.18 184.31"/><polygon class="cls-45" points="321.19 288 321.19 263.46 269.46 233.44 217.72 263.46 217.72 288 321.19 288"/><polygon class="cls-46" points="408.71 0 408.71 28.58 455.11 55.51 501.5 28.58 501.5 0 408.71 0"/><polygon class="cls-47" points="361.94 200.88 361.94 247.34 401.96 270.57 441.98 247.34 441.98 200.88 401.96 177.65 361.94 200.88"/><polygon class="cls-48" points="265.88 288 265.88 275.79 227.62 253.58 189.35 275.79 189.35 288 265.88 288"/><polygon class="cls-49" points="540 219.21 522.91 229.13 522.91 260.4 540 270.32 540 219.21"/><polygon class="cls-50" points="464.6 203.09 464.6 230.13 487.88 243.64 511.17 230.13 511.17 203.09 487.88 189.58 464.6 203.09"/><polygon class="cls-51" points="265.76 214.34 265.76 240.85 288.6 254.11 311.44 240.85 311.44 214.34 288.6 201.08 265.76 214.34"/><polygon class="cls-52" points="526.39 288 526.39 260.16 501.68 245.82 476.96 260.16 476.96 288 526.39 288"/><polygon class="cls-53" points="411.52 37.56 411.52 67.59 437.38 82.6 463.25 67.59 463.25 37.56 437.38 22.55 411.52 37.56"/><polygon class="cls-54" points="218.39 152.17 218.39 187.47 248.79 205.11 279.2 187.47 279.2 152.17 248.79 134.52 218.39 152.17"/><polygon class="cls-55" points="395.96 100.19 395.96 142.43 432.35 163.55 468.73 142.43 468.73 100.19 432.35 79.07 395.96 100.19"/><polygon class="cls-56" points="360.72 79.3 360.72 106.6 384.24 120.25 407.76 106.6 407.76 79.3 384.24 65.64 360.72 79.3"/><polygon class="cls-57" points="457.05 88.11 457.05 112.93 478.42 125.34 499.79 112.93 499.79 88.11 478.42 75.71 457.05 88.11"/><polygon class="cls-58" points="284.15 92.08 284.15 118.94 307.28 132.36 330.42 118.94 330.42 92.08 307.28 78.65 284.15 92.08"/><polygon class="cls-59" points="540 182.96 524.2 173.79 492.67 192.09 492.67 228.69 524.2 247 540 237.82 540 182.96"/><polygon class="cls-60" points="173.06 288 173.06 283.01 167.96 280.05 162.86 283.01 162.86 288 173.06 288"/><polygon class="cls-61" points="333.65 245.7 333.65 249.15 336.62 250.87 339.6 249.15 339.6 245.7 336.62 243.97 333.65 245.7"/><polygon class="cls-62" points="239.39 178.2 239.39 180.41 241.3 181.52 243.2 180.41 243.2 178.2 241.3 177.09 239.39 178.2"/><polygon class="cls-63" points="134.95 58.95 134.95 60.37 136.18 61.08 137.4 60.37 137.4 58.95 136.18 58.24 134.95 58.95"/><polygon class="cls-64" points="246.16 0 246.16 30.23 281.69 50.86 317.23 30.23 317.23 0 246.16 0"/><polygon class="cls-65" points="459.84 0 459.84 1.28 493.83 21.02 527.83 1.28 527.83 0 459.84 0"/><polygon class="cls-66" points="269.67 0 282.83 7.64 296 0 269.67 0"/><polygon class="cls-67" points="351.9 0 345.63 3.64 345.63 35.48 373.04 51.39 400.46 35.48 400.46 3.64 394.18 0 351.9 0"/><polygon class="cls-68" points="339.62 74.91 339.62 93.72 355.82 103.13 372.03 93.72 372.03 74.91 355.82 65.5 339.62 74.91"/><polygon class="cls-69" points="170.01 157.05 170.01 178.88 188.81 189.78 207.61 178.88 207.61 157.05 188.81 146.14 170.01 157.05"/><polygon class="cls-70" points="307.13 269.94 307.13 273.72 310.39 275.62 313.65 273.72 313.65 269.94 310.39 268.05 307.13 269.94"/><polygon class="cls-71" points="59.2 231.6 59.2 234.31 61.54 235.67 63.88 234.31 63.88 231.6 61.54 230.24 59.2 231.6"/><polygon class="cls-72" points="275.77 168.47 275.77 171.51 278.39 173.03 281.01 171.51 281.01 168.47 278.39 166.95 275.77 168.47"/><polygon class="cls-73" points="218.03 34.54 218.03 61.75 241.47 75.36 264.92 61.75 264.92 34.54 241.47 20.93 218.03 34.54"/><polygon class="cls-74" points="307.58 288 310.56 286.27 310.56 262.31 289.92 250.33 269.29 262.31 269.29 286.27 272.26 288 307.58 288"/><polygon class="cls-75" points="372.29 245.46 372.29 270.42 393.78 282.89 415.27 270.42 415.27 245.46 393.78 232.99 372.29 245.46"/><polygon class="cls-76" points="393.61 250.86 393.61 270.15 410.23 279.8 426.85 270.15 426.85 250.86 410.23 241.21 393.61 250.86"/><polygon class="cls-77" points="281.87 97.92 281.87 100.52 284.1 101.82 286.33 100.52 286.33 97.92 284.1 96.63 281.87 97.92"/><polygon class="cls-78" points="540 122.85 537.26 124.44 537.26 148.32 540 149.92 540 122.85"/><polygon class="cls-79" points="402.25 139.33 402.25 156.23 416.8 164.68 431.35 156.23 431.35 139.33 416.8 130.88 402.25 139.33"/><polygon class="cls-80" points="347.52 170.69 347.52 185.06 359.9 192.25 372.28 185.06 372.28 170.69 359.9 163.5 347.52 170.69"/><polygon class="cls-81" points="228.99 241.51 228.99 248.34 234.87 251.75 240.75 248.34 240.75 241.51 234.87 238.1 228.99 241.51"/><polygon class="cls-82" points="275.23 241.17 275.23 246.94 280.2 249.83 285.18 246.94 285.18 241.17 280.2 238.28 275.23 241.17"/><polygon class="cls-83" points="86.46 2.85 86.46 6.6 89.69 8.47 92.92 6.6 92.92 2.85 89.69 0.97 86.46 2.85"/><polygon class="cls-84" points="501.27 24.91 501.27 45.94 519.38 56.45 537.49 45.94 537.49 24.91 519.38 14.4 501.27 24.91"/><polygon class="cls-85" points="426.53 81.62 426.53 89.73 433.51 93.78 440.5 89.73 440.5 81.62 433.51 77.56 426.53 81.62"/><polygon class="cls-86" points="396.33 122.52 396.33 139.27 410.76 147.65 425.19 139.27 425.19 122.52 410.76 114.14 396.33 122.52"/><polygon class="cls-87" points="540 42.36 528.89 35.91 499.14 53.18 499.14 87.71 528.89 104.98 540 98.53 540 42.36"/><polygon class="cls-88" points="336.85 39.05 336.85 72.77 365.89 89.62 394.93 72.77 394.93 39.05 365.89 22.19 336.85 39.05"/><polygon class="cls-89" points="360 123.18 360 150.02 383.12 163.44 406.24 150.02 406.24 123.18 383.12 109.76 360 123.18"/><polygon class="cls-90" points="495.14 97.29 495.14 116.5 511.69 126.11 528.24 116.5 528.24 97.29 511.69 87.68 495.14 97.29"/><polygon class="cls-91" points="291.25 187.27 291.25 214.32 314.55 227.85 337.86 214.32 337.86 187.27 314.55 173.74 291.25 187.27"/><polygon class="cls-92" points="356.28 288 356.28 273.69 343.53 266.29 330.77 273.69 330.77 288 356.28 288"/><polygon class="cls-93" points="183.51 16.38 183.51 29.92 195.18 36.69 206.84 29.92 206.84 16.38 195.18 9.61 183.51 16.38"/><polygon class="cls-94" points="352.54 0 352.54 7.05 366.87 15.37 381.19 7.05 381.19 0 352.54 0"/><polygon class="cls-95" points="540 0 532.28 0 523.93 4.84 523.93 24 540 33.33 540 0"/><polygon class="cls-96" points="301.66 0 301.66 3.26 317.39 12.39 333.12 3.26 333.12 0 301.66 0"/><polygon class="cls-97" points="459.51 238.17 459.51 250.62 470.23 256.84 480.95 250.62 480.95 238.17 470.23 231.95 459.51 238.17"/><polygon class="cls-98" points="263.5 105.13 263.5 119.67 276.03 126.95 288.56 119.67 288.56 105.13 276.03 97.86 263.5 105.13"/><polygon class="cls-99" points="204.86 137.8 204.86 152.25 217.31 159.48 229.76 152.25 229.76 137.8 217.31 130.57 204.86 137.8"/><polygon class="cls-100" points="255.15 288 255.15 281.08 244.62 274.96 234.08 281.08 234.08 288 255.15 288"/><polygon class="cls-101" points="337.92 142.22 337.92 152.54 346.81 157.71 355.7 152.54 355.7 142.22 346.81 137.06 337.92 142.22"/><polygon class="cls-102" points="502.73 221.13 502.73 225 506.06 226.94 509.39 225 509.39 221.13 506.06 219.2 502.73 221.13"/><polygon class="cls-103" points="374.51 10.05 374.51 12.56 376.67 13.81 378.83 12.56 378.83 10.05 376.67 8.8 374.51 10.05"/><polygon class="cls-104" points="515.25 166.93 515.25 168.34 516.47 169.04 517.68 168.34 517.68 166.93 516.47 166.22 515.25 166.93"/><polygon class="cls-105" points="389.23 250.75 389.23 269.42 405.31 278.75 421.38 269.42 421.38 250.75 405.31 241.43 389.23 250.75"/><polygon class="cls-106" points="224.72 10.64 224.72 18 231.06 21.68 237.41 18 237.41 10.64 231.06 6.95 224.72 10.64"/><polygon class="cls-107" points="374.16 128.56 374.16 135.89 380.47 139.55 386.78 135.89 386.78 128.56 380.47 124.9 374.16 128.56"/><polygon class="cls-108" points="512.36 92.61 512.36 106.7 524.5 113.74 536.64 106.7 536.64 92.61 524.5 85.56 512.36 92.61"/><polygon class="cls-109" points="363.26 125.55 363.26 128.87 366.12 130.53 368.98 128.87 368.98 125.55 366.12 123.89 363.26 125.55"/><polygon class="cls-110" points="522.47 34.31 522.47 39.34 526.8 41.85 531.12 39.34 531.12 34.31 526.8 31.8 522.47 34.31"/><polygon class="cls-111" points="463.06 30.62 463.06 35.27 467.07 37.6 471.08 35.27 471.08 30.62 467.07 28.29 463.06 30.62"/></g></g></svg>