<svg id="Camada_1" data-name="Camada 1" xmlns="http://www.w3.org/2000/svg" viewBox="0 0 383.12 214.9"><defs><style>.cls-1{fill:#fff;}.cls-2{font-size:34px;font-family:OpenSans-Extrabold, Open Sans;font-weight:800;text-decoration:underline;}.cls-3{letter-spacing:0.3em;}</style></defs><title>ucb</title><path d="M193.33,168.34V45.07h2.89c12.79,0,25.58,0,38.38,0,21.82.08,37.17,17,35.45,38.81a36.86,36.86,0,0,1-7.86,19.82,36,36,0,0,1,8.95,14.12c5.51,16.55.38,37.1-15.9,46a35.94,35.94,0,0,1-17.19,4.54c-14.49.11-29,.06-43.47.06A12.31,12.31,0,0,1,193.33,168.34Zm24-22.94c7,0,13.69.1,20.37,0,3.81-.08,7.2-1.38,9.44-4.74a16.63,16.63,0,0,0,2.76-10.42c-.39-6.9-3.75-12.21-9.24-12.86-7.66-.9-15.43-.88-23.33-1.26Zm0-52.41c7,0,13.7.09,20.38,0a7.47,7.47,0,0,0,7.12-5.23,24.77,24.77,0,0,0,1.54-9.07c-.24-5.34-3.52-9.58-8.14-9.91-6.89-.51-13.84-.13-20.9-.13Z" transform="translate(-2.83 -0.45)"/><path d="M6.09,45.12c5.24,0,10.34-.17,15.42.05,4.17.17,7.79,4,7.93,8.4.2,6.35.12,12.7.14,19.05,0,18.52,0,37,.13,55.56a41.29,41.29,0,0,0,.78,7.44A11,11,0,0,0,36,143.49c7.91,4.29,15.91,4.44,23.7-.3a11.9,11.9,0,0,0,5.7-10.11c.3-7.41.41-14.83.43-22.25.06-18.26,0-36.51,0-54.76,0-7.48,3.5-11,11-11H89.51v3.36q0,40.13,0,80.25c0,21.46-11.94,36.54-33.05,40.12-16.64,2.82-31.74-.89-42.84-14.8a32.62,32.62,0,0,1-7.27-20.34C6.08,104.51,6,75.35,5.85,46.2A6.73,6.73,0,0,1,6.09,45.12Z" transform="translate(-2.83 -0.45)"/><path d="M182.3,58.83c-3.32,4.07-6.38,8.24-9.9,12-2.79,3-7.21,3.07-11.13.79a32.3,32.3,0,0,0-21.91-4.14c-8.78,1.39-14.21,6.81-14.37,15.64-.29,15.83-.26,31.67,0,47.5.11,8.09,5.07,13.36,13,15.15a31,31,0,0,0,22.51-3.29c7.09-3.86,11.5-3,16.76,3l6.82,7.82c-5.73,5.77-12.18,10.31-19.83,12.86-16.11,5.38-31.8,5.25-46.51-4.37-8.71-5.7-13.64-14-15.56-24.09a66.75,66.75,0,0,1-1-12c-.06-14.49-.31-29,.23-43.46.77-20.84,14.83-34.26,33.85-37.41,17.15-2.85,32.63,1.27,45.88,12.84C181.41,58,181.71,58.27,182.3,58.83Z" transform="translate(-2.83 -0.45)"/><path d="M146.81,26.9V.72h25.48c.07.75.2,1.52.2,2.3q0,10.71-.05,21.43c0,1.12.27,2.45-1.57,2.45Z" transform="translate(-2.83 -0.45)"/><path d="M189.6,26.85V.75h25.6V5.93c0,3.57.09,7.15-.08,10.71a10.5,10.5,0,0,1-9.86,10.15C200.12,27.05,195,26.85,189.6,26.85Z" transform="translate(-2.83 -0.45)"/><path d="M63.88.71H89.36v26c-5.69,0-11.31.35-16.87-.11-4.43-.37-8.42-5.25-8.57-9.75C63.74,11.6,63.88,6.32,63.88.71Z" transform="translate(-2.83 -0.45)"/><path d="M103.65.68H129V27c-6.14-.14-12.38,1-18.43-.86a9.61,9.61,0,0,1-6.85-8.81C103.34,11.88,103.65,6.42,103.65.68Z" transform="translate(-2.83 -0.45)"/><path d="M229.78,26.84V.71H255c0,5.91.42,11.72-.13,17.43-.48,5-4.79,8.45-9.77,8.65S234.94,26.84,229.78,26.84Z" transform="translate(-2.83 -0.45)"/><path class="cls-1" d="M217.3,145.4V116.08c7.9.38,15.67.36,23.33,1.26,5.49.65,8.85,6,9.24,12.86a16.63,16.63,0,0,1-2.76,10.42c-2.24,3.36-5.63,4.66-9.44,4.74C231,145.5,224.29,145.4,217.3,145.4Z" transform="translate(-2.83 -0.45)"/><path class="cls-1" d="M217.28,93V68.61c7.06,0,14-.38,20.9.13,4.62.33,7.9,4.57,8.14,9.91a24.77,24.77,0,0,1-1.54,9.07A7.47,7.47,0,0,1,237.66,93C231,93.08,224.3,93,217.28,93Z" transform="translate(-2.83 -0.45)"/><path d="M290.19,168.25c-.26-.11-.5-.25-.76-.33a14.3,14.3,0,0,1-9.32-16.58,6.48,6.48,0,0,1,.58-1.49q15.75-31.44,31.5-62.88a4,4,0,0,0,.39-1.7q-.1-17.83-.26-35.67c0-.34,0-.67,0-1a33.76,33.76,0,0,1-3.57-.19,7.14,7.14,0,0,1,1-14.19c7.83-.11,15.65-.17,23.47-.25,5,0,10-.12,14.94-.13a7.12,7.12,0,0,1,7.08,6.06,7,7,0,0,1-4.52,7.74,19.59,19.59,0,0,1-3.94.54,11.69,11.69,0,0,1-1.2,0c0,.41,0,.74,0,1.08q.22,17.91.45,35.84a3.26,3.26,0,0,0,.46,1.58q18.62,30.71,37.3,61.35a10.52,10.52,0,0,1,1.41,7.27,14,14,0,0,1-9.51,11.84,5.12,5.12,0,0,0-.52.27ZM317.13,43.68c0,.34,0,.56,0,.78q.15,20.57.3,41.14a3.23,3.23,0,0,1-.38,1.45q-15.85,31.9-31.74,63.8a6,6,0,0,0-.56,1.51,9,9,0,0,0,1.53,7.14,8.27,8.27,0,0,0,7.25,3.85c8.79-.16,17.58-.16,26.37-.23q26.38-.24,52.75-.5a5.67,5.67,0,0,0,2.06-.43,8.54,8.54,0,0,0,4.51-4c1.57-3,1.86-5.88,0-9Q360.59,118,342,86.65a3.23,3.23,0,0,1-.45-1.5q-.3-20.36-.55-40.72c0-.3,0-.6,0-1H342c2.05,0,4.1,0,6.15-.07A2.39,2.39,0,0,0,350.55,41,2.42,2.42,0,0,0,348,38.6h-.6L310.64,39a7.23,7.23,0,0,0-.93,0,2.3,2.3,0,0,0-2,1.52,2.36,2.36,0,0,0,2.3,3.22C312.35,43.76,314.68,43.71,317.13,43.68Z" transform="translate(-2.83 -0.45)"/><path d="M331,7.59a7.16,7.16,0,1,1,7,7.2A7.15,7.15,0,0,1,331,7.59Z" transform="translate(-2.83 -0.45)"/><path d="M324,22.12a4.72,4.72,0,0,1-4.71,4.82A4.78,4.78,0,1,1,324,22.12Z" transform="translate(-2.83 -0.45)"/><path d="M343.13,26.75a4.73,4.73,0,0,1-4.74,4.78,4.78,4.78,0,1,1,4.74-4.78Z" transform="translate(-2.83 -0.45)"/><path class="cls-1" d="M317.13,43.68c-2.45,0-4.78.08-7.11.06a2.36,2.36,0,0,1-2.3-3.22,2.3,2.3,0,0,1,2-1.52,7.23,7.23,0,0,1,.93,0l36.79-.36h.6A2.42,2.42,0,0,1,350.55,41a2.39,2.39,0,0,1-2.45,2.42c-2.05.05-4.1.05-6.15.07H341c0,.38,0,.68,0,1q.27,20.37.55,40.72a3.23,3.23,0,0,0,.45,1.5q18.57,31.32,37.21,62.6c1.84,3.08,1.55,6,0,9a8.54,8.54,0,0,1-4.51,4,5.67,5.67,0,0,1-2.06.43q-26.37.27-52.75.5c-8.79.07-17.58.07-26.37.23a8.27,8.27,0,0,1-7.25-3.85,9,9,0,0,1-1.53-7.14,6,6,0,0,1,.56-1.51q15.87-31.89,31.74-63.8a3.23,3.23,0,0,0,.38-1.45q-.12-20.56-.3-41.14C317.13,44.24,317.13,44,317.13,43.68Zm30.84,62c-.22.3-.34.51-.49.67-4.57,4.77-10.14,5.29-15.46,1.38-1.37-1-2.56-2.25-3.91-3.29-2.55-2-5.37-3.19-8.65-2.49a9.85,9.85,0,0,0-7.2,5.33q-11.17,22.58-22.36,45.14c-1.54,3.08,1.18,6.64,4.12,6.6q38.46-.51,76.91-.77c3.32,0,5.45-4.14,3.88-6.77-6.43-10.75-12.7-21.61-19-32.43Z" transform="translate(-2.83 -0.45)"/><path d="M348,105.63,355.79,119c6.32,10.82,12.59,21.68,19,32.43,1.57,2.63-.56,6.75-3.88,6.77q-38.46.27-76.91.77c-2.94,0-5.66-3.52-4.12-6.6q11.24-22.53,22.36-45.14a9.85,9.85,0,0,1,7.2-5.33c3.28-.7,6.1.54,8.65,2.49,1.35,1,2.54,2.28,3.91,3.29,5.32,3.91,10.89,3.39,15.46-1.38C347.63,106.14,347.75,105.93,348,105.63Z" transform="translate(-2.83 -0.45)"/><text class="cls-2" transform="translate(0 204.94)"><tspan class="cls-3">LABORATÓRIO</tspan><tspan x="363.5" y="0">S</tspan></text></svg>